<?xml version="1.0" encoding="UTF-8" standalone="no"?>
<svg width="512" height="512" xmlns="http://www.w3.org/2000/svg">

 <metadata id="metadata4">image/svg+xml</metadata>
 <g>
  <title>background</title>
  <rect fill="none" id="canvas_background" height="861" width="1662" y="-1" x="-1"/>
 </g>
 <g>
  <title>Layer 1</title>
  <g stroke="null"   id="layer1">
   <path transform="rotate(-90 254.9999694824219,259.5)" fill="#0E83CD" fill-rule="evenodd" stroke-width="0.625" stroke-miterlimit="4" stroke-dashoffset="0" d="m372.9002,444l118.09977,-184.5l-118.09977,-184.5l-235.80044,0l-118.09977,184.5l118.09977,184.5l235.80044,0z" id="rect1291" />
   <g stroke="null" id="g2835">
    <rect stroke="#0E83CD" fill="#ffffff" fill-rule="evenodd" stroke-width="0.72967" stroke-miterlimit="4" stroke-dashoffset="0" transform="translate(0.000012806800441467203,1.4970749616622925) scale(1,-1) " y="-348.31677" x="231.95101" height="156.82801" width="45.95252" id="rect2902"/>
    <rect stroke="#0E83CD" fill="#ffffff" fill-rule="evenodd" stroke-width="0.48094" stroke-miterlimit="4" stroke-dashoffset="0" transform="matrix(12.699972154591551,-2.9574636035757065,0,-11.903225898742676,-0.1417323350906372,0) " y="-36.0682" x="21.62936" height="13.84423" width="9.77551" id="rect2910"/>
    <rect stroke="#0E83CD" fill="#ffffff" fill-rule="evenodd" stroke-width="0.48094" stroke-miterlimit="4" stroke-dashoffset="0" transform="matrix(-12.699972154591551,-2.9574636035757065,0,-11.903225898742676,-0.1417323350906372,0) " y="-26.02095" x="-18.55051" height="13.84423" width="9.77549" id="rect2916"/>
    <rect stroke="#0E83CD" fill="#ffffff" fill-rule="evenodd" stroke-width="0.48094" stroke-miterlimit="4" stroke-dashoffset="0" transform="matrix(12.699972154591551,-2.9574636035757065,0,-11.903225898742676,-0.1417323350906372,0) " y="-33.9988" x="20.17134" height="13.84423" width="9.77549" id="rect1310"/>
    <rect stroke="#0E83CD" fill="#ffffff" fill-rule="evenodd" stroke-width="0.48094" stroke-miterlimit="4" stroke-dashoffset="0" transform="matrix(-12.699972154591551,-2.9574636035757065,0,-11.903225898742676,-0.1417323350906372,0) " y="-24.0567" x="-19.84369" height="13.84423" width="9.77548" id="rect1312"/>
   </g>
  </g>
 </g>
</svg>